<?xml version="1.0" encoding="iso-8859-1"?>
<!-- Generator: Adobe Illustrator 19.0.0, SVG Export Plug-In . SVG Version: 6.00 Build 0)  -->
<svg version="1.1" id="Capa_1" xmlns="http://www.w3.org/2000/svg" xmlns:xlink="http://www.w3.org/1999/xlink" x="0px" y="0px"
	 viewBox="0 0 512 512" style="enable-background:new 0 0 512 512;" xml:space="preserve">
<path style="fill:#FEC9A3;" d="M341.333,349.867h-42.667V281.6h-85.333v68.267h-42.667c-47.13,0-85.333,38.204-85.333,85.333V512
	h341.333v-76.8C426.667,388.07,388.463,349.867,341.333,349.867z"/>
<path style="fill:#DB6EA2;" d="M341.333,349.867h-42.667L256,503.467l-42.667-153.6h-42.667c-47.13,0-85.333,38.204-85.333,85.333
	V512h341.333v-76.8C426.667,388.07,388.463,349.867,341.333,349.867z"/>
<g>
	<polygon style="fill:#EBEBEB;" points="213.333,324.267 145.067,409.6 196.267,401.067 256,503.467 	"/>
	<polygon style="fill:#EBEBEB;" points="256,503.467 315.733,401.067 366.933,409.6 298.667,324.267 	"/>
</g>
<path style="fill:#4398D1;" d="M349.867,486.4v-17.067c0-4.71-3.823-8.533-8.533-8.533l0,0c-4.71,0-8.533,3.823-8.533,8.533V486.4
	h-25.6V512h68.267v-25.6H349.867z"/>
<path style="fill:#F7BB8F;" d="M298.667,313.941V281.6h-85.333v32.341C240.111,327.706,271.889,327.706,298.667,313.941z"/>
<rect x="332.8" y="145.067" style="fill:#6B402A;" width="25.6" height="25.6"/>
<path style="fill:#D1D1D1;" d="M401.067,187.733H384v-42.667c0-70.69-57.31-128-128-128s-128,57.31-128,128v42.667h-17.067v-42.667
	C110.933,64.947,175.881,0,256,0s145.067,64.947,145.067,145.067V187.733z"/>
<path style="fill:#DBDBDB;" d="M162.133,221.867h-17.067c-18.85,0-34.133-15.283-34.133-34.133l0,0
	c0-18.85,15.283-34.133,34.133-34.133h17.067l0,0V221.867L162.133,221.867z"/>
<path style="fill:#FEC9A3;" d="M162.133,213.333v-76.8c0-51.84,42.027-93.867,93.867-93.867l0,0
	c51.84,0,93.867,42.027,93.867,93.867v76.8c0,51.84-42.027,93.867-93.867,93.867l0,0C204.16,307.2,162.133,265.173,162.133,213.333
	L162.133,213.333"/>
<g>
	<circle style="fill:#6B402A;" cx="204.8" cy="179.2" r="17.067"/>
	<circle style="fill:#6B402A;" cx="307.2" cy="179.2" r="17.067"/>
</g>
<g>
	<path style="fill:#F0A789;" d="M248.917,264.533h-9.984v-17.067h9.984c13.193-0.009,25.839-5.257,35.157-14.592l12.117,12.117
		C283.597,257.442,266.624,264.457,248.917,264.533z"/>
	<path style="fill:#F0A789;" d="M264.533,230.4h-25.6c-4.71-0.017-8.525-3.849-8.508-8.559c0-1.323,0.316-2.628,0.913-3.814
		l17.067-34.133l15.189,7.68l-10.837,21.76h11.776V230.4z"/>
</g>
<path style="fill:#D1D1D1;" d="M332.8,315.733L332.8,315.733c-3.021-3.618-2.526-9.003,1.092-12.015
	c0.009-0.009,0.009-0.009,0.017-0.017l32.341-26.965c5.854-4.873,9.225-12.1,9.216-19.712v-60.757h17.067v60.843
	c0.068,12.749-5.564,24.866-15.36,33.024l-32.341,26.965c-3.678,2.944-9.045,2.355-11.998-1.323
	C332.826,315.767,332.809,315.75,332.8,315.733z"/>
<path style="fill:#DBDBDB;" d="M349.867,153.6h17.067c18.85,0,34.133,15.283,34.133,34.133l0,0c0,18.85-15.283,34.133-34.133,34.133
	h-17.067l0,0V153.6L349.867,153.6z"/>
<path style="fill:#6B402A;" d="M153.6,179.2l153.6-76.8l0,0c11.068,22.161,29.039,40.132,51.2,51.2l0,0v-8.533
	c0-56.55-45.85-102.4-102.4-102.4l0,0c-56.55,0-102.4,45.85-102.4,102.4V179.2z"/>
<path style="fill:#D46198;" d="M392.533,366.933c21.487,16.119,34.133,41.404,34.133,68.267V512h-34.133V366.933z"/>
<g>
	<path style="fill:#D1D1D1;" d="M349.867,203.008v18.859h17.067c18.85-0.06,34.091-15.386,34.031-34.236
		c-0.017-5.171-1.203-10.274-3.482-14.916C386.517,188.996,369.263,199.97,349.867,203.008z"/>
	<path style="fill:#D1D1D1;" d="M145.067,221.867h17.067v-33.621c-13.389,9.293-28.331,16.111-44.117,20.139
		C124.442,216.841,134.443,221.824,145.067,221.867z"/>
</g>
<g>
</g>
<g>
</g>
<g>
</g>
<g>
</g>
<g>
</g>
<g>
</g>
<g>
</g>
<g>
</g>
<g>
</g>
<g>
</g>
<g>
</g>
<g>
</g>
<g>
</g>
<g>
</g>
<g>
</g>
</svg>
